<mxfile host="app.diagrams.net" agent="Mozilla/5.0 (Windows NT 10.0; Win64; x64) AppleWebKit/537.36 (KHTML, like Gecko) Chrome/130.0.0.0 Safari/537.36" version="24.8.6">
  <diagram name="Page-1" id="at9A_RI2fze7K5TdBR4z">
    <mxGraphModel dx="2100" dy="1114" grid="1" gridSize="10" guides="1" tooltips="1" connect="1" arrows="1" fold="1" page="1" pageScale="1" pageWidth="2000" pageHeight="2000" background="#FFFFFF" math="0" shadow="0">
      <root>
        <mxCell id="0" />
        <mxCell id="1" parent="0" />
        <mxCell id="Nf-f_ZbDkElZ-WXoTZhc-1" value="Đăng kí" style="ellipse;whiteSpace=wrap;html=1;strokeColor=#4D9900;" vertex="1" parent="1">
          <mxGeometry x="430" y="80" width="120" height="80" as="geometry" />
        </mxCell>
        <mxCell id="Nf-f_ZbDkElZ-WXoTZhc-82" style="edgeStyle=orthogonalEdgeStyle;rounded=0;orthogonalLoop=1;jettySize=auto;html=1;exitX=1;exitY=0.5;exitDx=0;exitDy=0;dashed=1;" edge="1" parent="1" source="Nf-f_ZbDkElZ-WXoTZhc-2" target="Nf-f_ZbDkElZ-WXoTZhc-80">
          <mxGeometry relative="1" as="geometry">
            <Array as="points">
              <mxPoint x="1390" y="65" />
              <mxPoint x="1390" y="65" />
            </Array>
          </mxGeometry>
        </mxCell>
        <mxCell id="Nf-f_ZbDkElZ-WXoTZhc-3" value="Bằng email" style="ellipse;whiteSpace=wrap;html=1;" vertex="1" parent="1">
          <mxGeometry x="620" y="130" width="120" height="80" as="geometry" />
        </mxCell>
        <mxCell id="Nf-f_ZbDkElZ-WXoTZhc-60" style="edgeStyle=orthogonalEdgeStyle;rounded=0;orthogonalLoop=1;jettySize=auto;html=1;entryX=0;entryY=0.5;entryDx=0;entryDy=0;" edge="1" parent="1" target="Nf-f_ZbDkElZ-WXoTZhc-1">
          <mxGeometry relative="1" as="geometry">
            <mxPoint x="200" y="530" as="sourcePoint" />
            <Array as="points">
              <mxPoint x="200" y="570" />
              <mxPoint x="200" y="120" />
            </Array>
          </mxGeometry>
        </mxCell>
        <mxCell id="Nf-f_ZbDkElZ-WXoTZhc-61" style="edgeStyle=orthogonalEdgeStyle;rounded=0;orthogonalLoop=1;jettySize=auto;html=1;entryX=0;entryY=1;entryDx=0;entryDy=0;" edge="1" parent="1" target="Nf-f_ZbDkElZ-WXoTZhc-12">
          <mxGeometry relative="1" as="geometry">
            <mxPoint x="230" y="560" as="sourcePoint" />
            <Array as="points">
              <mxPoint x="230" y="550" />
              <mxPoint x="230" y="358" />
            </Array>
          </mxGeometry>
        </mxCell>
        <mxCell id="Nf-f_ZbDkElZ-WXoTZhc-65" style="edgeStyle=orthogonalEdgeStyle;rounded=0;orthogonalLoop=1;jettySize=auto;html=1;entryX=0;entryY=0.375;entryDx=0;entryDy=0;entryPerimeter=0;" edge="1" parent="1" target="Nf-f_ZbDkElZ-WXoTZhc-25">
          <mxGeometry relative="1" as="geometry">
            <mxPoint x="240" y="600" as="sourcePoint" />
            <mxPoint x="350" y="600" as="targetPoint" />
            <Array as="points" />
          </mxGeometry>
        </mxCell>
        <mxCell id="Nf-f_ZbDkElZ-WXoTZhc-66" style="edgeStyle=orthogonalEdgeStyle;rounded=0;orthogonalLoop=1;jettySize=auto;html=1;entryX=0;entryY=0.5;entryDx=0;entryDy=0;" edge="1" parent="1" target="Nf-f_ZbDkElZ-WXoTZhc-29">
          <mxGeometry relative="1" as="geometry">
            <mxPoint x="250" y="610" as="sourcePoint" />
            <Array as="points">
              <mxPoint x="350" y="610" />
              <mxPoint x="350" y="740" />
            </Array>
          </mxGeometry>
        </mxCell>
        <mxCell id="Nf-f_ZbDkElZ-WXoTZhc-68" style="edgeStyle=orthogonalEdgeStyle;rounded=0;orthogonalLoop=1;jettySize=auto;html=1;entryX=0;entryY=0.5;entryDx=0;entryDy=0;" edge="1" parent="1" target="Nf-f_ZbDkElZ-WXoTZhc-30">
          <mxGeometry relative="1" as="geometry">
            <mxPoint x="220" y="680" as="sourcePoint" />
            <Array as="points">
              <mxPoint x="220" y="700" />
              <mxPoint x="220" y="840" />
            </Array>
          </mxGeometry>
        </mxCell>
        <mxCell id="Nf-f_ZbDkElZ-WXoTZhc-69" style="edgeStyle=orthogonalEdgeStyle;rounded=0;orthogonalLoop=1;jettySize=auto;html=1;entryX=0;entryY=0.5;entryDx=0;entryDy=0;" edge="1" parent="1" target="Nf-f_ZbDkElZ-WXoTZhc-31">
          <mxGeometry relative="1" as="geometry">
            <mxPoint x="210" y="680" as="sourcePoint" />
            <Array as="points">
              <mxPoint x="210" y="980" />
            </Array>
          </mxGeometry>
        </mxCell>
        <mxCell id="Nf-f_ZbDkElZ-WXoTZhc-70" style="edgeStyle=orthogonalEdgeStyle;rounded=0;orthogonalLoop=1;jettySize=auto;html=1;entryX=0;entryY=0.5;entryDx=0;entryDy=0;" edge="1" parent="1" target="Nf-f_ZbDkElZ-WXoTZhc-48">
          <mxGeometry relative="1" as="geometry">
            <mxPoint x="190" y="680" as="sourcePoint" />
            <Array as="points">
              <mxPoint x="190" y="700" />
              <mxPoint x="190" y="1390" />
            </Array>
          </mxGeometry>
        </mxCell>
        <mxCell id="Nf-f_ZbDkElZ-WXoTZhc-71" style="edgeStyle=orthogonalEdgeStyle;rounded=0;orthogonalLoop=1;jettySize=auto;html=1;entryX=0;entryY=0.5;entryDx=0;entryDy=0;" edge="1" parent="1" target="Nf-f_ZbDkElZ-WXoTZhc-59">
          <mxGeometry relative="1" as="geometry">
            <mxPoint x="180" y="620" as="sourcePoint" />
            <Array as="points">
              <mxPoint x="160" y="620" />
              <mxPoint x="160" y="1840" />
            </Array>
          </mxGeometry>
        </mxCell>
        <mxCell id="Nf-f_ZbDkElZ-WXoTZhc-4" value="Actor" style="shape=umlActor;verticalLabelPosition=bottom;verticalAlign=top;html=1;outlineConnect=0;" vertex="1" parent="1">
          <mxGeometry x="190" y="580" width="30" height="60" as="geometry" />
        </mxCell>
        <mxCell id="Nf-f_ZbDkElZ-WXoTZhc-5" value="return" style="html=1;verticalAlign=bottom;endArrow=open;dashed=1;endSize=8;curved=0;rounded=0;exitX=-0.02;exitY=0.402;exitDx=0;exitDy=0;exitPerimeter=0;entryX=0.83;entryY=0.073;entryDx=0;entryDy=0;entryPerimeter=0;" edge="1" parent="1" source="Nf-f_ZbDkElZ-WXoTZhc-2" target="Nf-f_ZbDkElZ-WXoTZhc-1">
          <mxGeometry relative="1" as="geometry">
            <mxPoint x="610" y="70" as="sourcePoint" />
            <mxPoint x="530" y="70" as="targetPoint" />
          </mxGeometry>
        </mxCell>
        <mxCell id="Nf-f_ZbDkElZ-WXoTZhc-6" value="return" style="html=1;verticalAlign=bottom;endArrow=open;dashed=1;endSize=8;curved=0;rounded=0;exitX=0;exitY=0.5;exitDx=0;exitDy=0;entryX=0.83;entryY=0.073;entryDx=0;entryDy=0;entryPerimeter=0;" edge="1" parent="1" source="Nf-f_ZbDkElZ-WXoTZhc-3">
          <mxGeometry relative="1" as="geometry">
            <mxPoint x="628" y="110" as="sourcePoint" />
            <mxPoint x="540" y="144" as="targetPoint" />
          </mxGeometry>
        </mxCell>
        <mxCell id="Nf-f_ZbDkElZ-WXoTZhc-9" style="edgeStyle=orthogonalEdgeStyle;rounded=0;orthogonalLoop=1;jettySize=auto;html=1;exitX=0.225;exitY=0.066;exitDx=0;exitDy=0;entryX=1;entryY=0.5;entryDx=0;entryDy=0;dashed=1;dashPattern=8 8;exitPerimeter=0;" edge="1" parent="1" source="Nf-f_ZbDkElZ-WXoTZhc-7" target="Nf-f_ZbDkElZ-WXoTZhc-1">
          <mxGeometry relative="1" as="geometry">
            <Array as="points">
              <mxPoint x="820" y="270" />
              <mxPoint x="820" y="120" />
            </Array>
          </mxGeometry>
        </mxCell>
        <mxCell id="Nf-f_ZbDkElZ-WXoTZhc-10" value="Cập nhật thông tin&amp;nbsp;&lt;div&gt;người nhận&lt;/div&gt;" style="ellipse;whiteSpace=wrap;html=1;" vertex="1" parent="1">
          <mxGeometry x="450" y="200" width="120" height="80" as="geometry" />
        </mxCell>
        <mxCell id="Nf-f_ZbDkElZ-WXoTZhc-74" style="edgeStyle=orthogonalEdgeStyle;rounded=0;orthogonalLoop=1;jettySize=auto;html=1;exitX=0.986;exitY=0.614;exitDx=0;exitDy=0;dashed=1;exitPerimeter=0;" edge="1" parent="1" source="Nf-f_ZbDkElZ-WXoTZhc-12">
          <mxGeometry relative="1" as="geometry">
            <mxPoint x="800" y="340" as="targetPoint" />
            <Array as="points">
              <mxPoint x="490" y="339" />
            </Array>
          </mxGeometry>
        </mxCell>
        <mxCell id="Nf-f_ZbDkElZ-WXoTZhc-12" value="Quản lí tài khoản" style="ellipse;whiteSpace=wrap;html=1;strokeColor=#009900;" vertex="1" parent="1">
          <mxGeometry x="370" y="290" width="120" height="80" as="geometry" />
        </mxCell>
        <mxCell id="Nf-f_ZbDkElZ-WXoTZhc-13" value="Xóa tài khoản" style="ellipse;whiteSpace=wrap;html=1;" vertex="1" parent="1">
          <mxGeometry x="390" y="420" width="120" height="80" as="geometry" />
        </mxCell>
        <mxCell id="Nf-f_ZbDkElZ-WXoTZhc-16" value="" style="endArrow=block;dashed=1;endFill=0;endSize=12;html=1;rounded=0;exitX=0.5;exitY=0;exitDx=0;exitDy=0;entryX=0.5;entryY=1;entryDx=0;entryDy=0;" edge="1" parent="1" source="Nf-f_ZbDkElZ-WXoTZhc-13" target="Nf-f_ZbDkElZ-WXoTZhc-12">
          <mxGeometry width="160" relative="1" as="geometry">
            <mxPoint x="450" y="270" as="sourcePoint" />
            <mxPoint x="670" y="350" as="targetPoint" />
          </mxGeometry>
        </mxCell>
        <mxCell id="Nf-f_ZbDkElZ-WXoTZhc-17" value="Tìm bằng email" style="ellipse;whiteSpace=wrap;html=1;" vertex="1" parent="1">
          <mxGeometry x="530" y="470" width="120" height="80" as="geometry" />
        </mxCell>
        <mxCell id="Nf-f_ZbDkElZ-WXoTZhc-18" value="Khóa tài khoản" style="ellipse;whiteSpace=wrap;html=1;" vertex="1" parent="1">
          <mxGeometry x="560" y="380" width="120" height="80" as="geometry" />
        </mxCell>
        <mxCell id="Nf-f_ZbDkElZ-WXoTZhc-19" value="Đổi mật khẩu" style="ellipse;whiteSpace=wrap;html=1;" vertex="1" parent="1">
          <mxGeometry x="600" y="250" width="120" height="80" as="geometry" />
        </mxCell>
        <mxCell id="Nf-f_ZbDkElZ-WXoTZhc-21" value="" style="endArrow=block;dashed=1;endFill=0;endSize=12;html=1;rounded=0;exitX=0;exitY=0.5;exitDx=0;exitDy=0;entryX=1;entryY=0;entryDx=0;entryDy=0;" edge="1" parent="1" source="Nf-f_ZbDkElZ-WXoTZhc-19">
          <mxGeometry width="160" relative="1" as="geometry">
            <mxPoint x="478" y="278" as="sourcePoint" />
            <mxPoint x="482" y="312" as="targetPoint" />
          </mxGeometry>
        </mxCell>
        <mxCell id="Nf-f_ZbDkElZ-WXoTZhc-22" value="" style="endArrow=block;dashed=1;endFill=0;endSize=12;html=1;rounded=0;entryX=1;entryY=0;entryDx=0;entryDy=0;" edge="1" parent="1">
          <mxGeometry width="160" relative="1" as="geometry">
            <mxPoint x="560" y="408" as="sourcePoint" />
            <mxPoint x="482" y="360" as="targetPoint" />
          </mxGeometry>
        </mxCell>
        <mxCell id="Nf-f_ZbDkElZ-WXoTZhc-24" value="" style="endArrow=block;dashed=1;endFill=0;endSize=12;html=1;rounded=0;entryX=0.5;entryY=0;entryDx=0;entryDy=0;exitX=0;exitY=0.5;exitDx=0;exitDy=0;" edge="1" parent="1" source="Nf-f_ZbDkElZ-WXoTZhc-10" target="Nf-f_ZbDkElZ-WXoTZhc-12">
          <mxGeometry width="160" relative="1" as="geometry">
            <mxPoint x="448" y="280" as="sourcePoint" />
            <mxPoint x="370" y="232" as="targetPoint" />
          </mxGeometry>
        </mxCell>
        <mxCell id="Nf-f_ZbDkElZ-WXoTZhc-73" style="edgeStyle=orthogonalEdgeStyle;rounded=0;orthogonalLoop=1;jettySize=auto;html=1;exitX=1;exitY=0.5;exitDx=0;exitDy=0;dashed=1;dashPattern=8 8;entryX=0.123;entryY=0.855;entryDx=0;entryDy=0;entryPerimeter=0;" edge="1" parent="1" source="Nf-f_ZbDkElZ-WXoTZhc-25" target="Nf-f_ZbDkElZ-WXoTZhc-7">
          <mxGeometry relative="1" as="geometry">
            <mxPoint x="798" y="480" as="targetPoint" />
            <Array as="points">
              <mxPoint x="797" y="610" />
            </Array>
          </mxGeometry>
        </mxCell>
        <mxCell id="Nf-f_ZbDkElZ-WXoTZhc-25" value="Tìm kiếm người dùng" style="ellipse;whiteSpace=wrap;html=1;strokeColor=#006600;" vertex="1" parent="1">
          <mxGeometry x="370" y="570" width="120" height="80" as="geometry" />
        </mxCell>
        <mxCell id="Nf-f_ZbDkElZ-WXoTZhc-26" value="" style="endArrow=block;dashed=1;endFill=0;endSize=12;html=1;rounded=0;exitX=0;exitY=0.5;exitDx=0;exitDy=0;entryX=1;entryY=0;entryDx=0;entryDy=0;" edge="1" parent="1" source="Nf-f_ZbDkElZ-WXoTZhc-17" target="Nf-f_ZbDkElZ-WXoTZhc-25">
          <mxGeometry width="160" relative="1" as="geometry">
            <mxPoint x="510" y="600" as="sourcePoint" />
            <mxPoint x="490" y="550" as="targetPoint" />
          </mxGeometry>
        </mxCell>
        <mxCell id="Nf-f_ZbDkElZ-WXoTZhc-27" value="Tìm kiếm bằng SĐT" style="ellipse;whiteSpace=wrap;html=1;" vertex="1" parent="1">
          <mxGeometry x="530" y="620" width="120" height="80" as="geometry" />
        </mxCell>
        <mxCell id="Nf-f_ZbDkElZ-WXoTZhc-28" value="" style="endArrow=block;dashed=1;endFill=0;endSize=12;html=1;rounded=0;exitX=0;exitY=0.5;exitDx=0;exitDy=0;entryX=0.5;entryY=1;entryDx=0;entryDy=0;" edge="1" parent="1" source="Nf-f_ZbDkElZ-WXoTZhc-27">
          <mxGeometry width="160" relative="1" as="geometry">
            <mxPoint x="500" y="680" as="sourcePoint" />
            <mxPoint x="480" y="630" as="targetPoint" />
          </mxGeometry>
        </mxCell>
        <mxCell id="Nf-f_ZbDkElZ-WXoTZhc-29" value="Thay đổi ngôn ngữ" style="ellipse;whiteSpace=wrap;html=1;strokeColor=#006600;" vertex="1" parent="1">
          <mxGeometry x="410" y="700" width="120" height="80" as="geometry" />
        </mxCell>
        <mxCell id="Nf-f_ZbDkElZ-WXoTZhc-30" value="Chặn người dùng" style="ellipse;whiteSpace=wrap;html=1;strokeColor=#006600;" vertex="1" parent="1">
          <mxGeometry x="455" y="800" width="120" height="80" as="geometry" />
        </mxCell>
        <mxCell id="Nf-f_ZbDkElZ-WXoTZhc-72" style="edgeStyle=orthogonalEdgeStyle;rounded=0;orthogonalLoop=1;jettySize=auto;html=1;dashed=1;dashPattern=8 8;exitX=0.921;exitY=0.232;exitDx=0;exitDy=0;exitPerimeter=0;entryX=0.232;entryY=0.939;entryDx=0;entryDy=0;entryPerimeter=0;" edge="1" parent="1" source="Nf-f_ZbDkElZ-WXoTZhc-31" target="Nf-f_ZbDkElZ-WXoTZhc-7">
          <mxGeometry relative="1" as="geometry">
            <mxPoint x="610" y="960" as="sourcePoint" />
            <mxPoint x="820" y="560" as="targetPoint" />
            <Array as="points">
              <mxPoint x="571" y="960" />
              <mxPoint x="820" y="960" />
              <mxPoint x="820" y="500" />
              <mxPoint x="821" y="500" />
            </Array>
          </mxGeometry>
        </mxCell>
        <mxCell id="Nf-f_ZbDkElZ-WXoTZhc-31" value="Quản lý nhóm" style="ellipse;whiteSpace=wrap;html=1;strokeColor=#006600;" vertex="1" parent="1">
          <mxGeometry x="460" y="940" width="120" height="80" as="geometry" />
        </mxCell>
        <mxCell id="Nf-f_ZbDkElZ-WXoTZhc-32" value="Xóa nhóm" style="ellipse;whiteSpace=wrap;html=1;" vertex="1" parent="1">
          <mxGeometry x="630" y="770" width="120" height="80" as="geometry" />
        </mxCell>
        <mxCell id="Nf-f_ZbDkElZ-WXoTZhc-33" value="" style="endArrow=block;dashed=1;endFill=0;endSize=12;html=1;rounded=0;exitX=0;exitY=1;exitDx=0;exitDy=0;entryX=1;entryY=0;entryDx=0;entryDy=0;" edge="1" parent="1" source="Nf-f_ZbDkElZ-WXoTZhc-32" target="Nf-f_ZbDkElZ-WXoTZhc-31">
          <mxGeometry width="160" relative="1" as="geometry">
            <mxPoint x="610" y="970" as="sourcePoint" />
            <mxPoint x="570" y="960" as="targetPoint" />
          </mxGeometry>
        </mxCell>
        <mxCell id="Nf-f_ZbDkElZ-WXoTZhc-34" value="Đổi tên nhóm" style="ellipse;whiteSpace=wrap;html=1;" vertex="1" parent="1">
          <mxGeometry x="335" y="870" width="120" height="80" as="geometry" />
        </mxCell>
        <mxCell id="Nf-f_ZbDkElZ-WXoTZhc-35" value="Xem danh sách&amp;nbsp;&lt;div&gt;thành viên&lt;/div&gt;" style="ellipse;whiteSpace=wrap;html=1;" vertex="1" parent="1">
          <mxGeometry x="695" y="980" width="120" height="80" as="geometry" />
        </mxCell>
        <mxCell id="Nf-f_ZbDkElZ-WXoTZhc-36" value="Đổi ảnh" style="ellipse;whiteSpace=wrap;html=1;" vertex="1" parent="1">
          <mxGeometry x="710" y="1070" width="120" height="80" as="geometry" />
        </mxCell>
        <mxCell id="Nf-f_ZbDkElZ-WXoTZhc-37" value="Xóa thành viên" style="ellipse;whiteSpace=wrap;html=1;" vertex="1" parent="1">
          <mxGeometry x="470" y="1180" width="120" height="80" as="geometry" />
        </mxCell>
        <mxCell id="Nf-f_ZbDkElZ-WXoTZhc-38" value="Rời nhóm" style="ellipse;whiteSpace=wrap;html=1;" vertex="1" parent="1">
          <mxGeometry x="330" y="1140" width="120" height="80" as="geometry" />
        </mxCell>
        <mxCell id="Nf-f_ZbDkElZ-WXoTZhc-39" value="tạo nhóm chat" style="ellipse;whiteSpace=wrap;html=1;" vertex="1" parent="1">
          <mxGeometry x="300" y="1040" width="120" height="80" as="geometry" />
        </mxCell>
        <mxCell id="Nf-f_ZbDkElZ-WXoTZhc-40" value="Thêm thành viên&lt;div&gt;mới&lt;/div&gt;" style="ellipse;whiteSpace=wrap;html=1;" vertex="1" parent="1">
          <mxGeometry x="600" y="1130" width="120" height="80" as="geometry" />
        </mxCell>
        <mxCell id="Nf-f_ZbDkElZ-WXoTZhc-41" value="" style="endArrow=block;dashed=1;endFill=0;endSize=12;html=1;rounded=0;exitX=1;exitY=1;exitDx=0;exitDy=0;entryX=0.081;entryY=0.247;entryDx=0;entryDy=0;entryPerimeter=0;" edge="1" parent="1" source="Nf-f_ZbDkElZ-WXoTZhc-34" target="Nf-f_ZbDkElZ-WXoTZhc-31">
          <mxGeometry width="160" relative="1" as="geometry">
            <mxPoint x="658" y="848" as="sourcePoint" />
            <mxPoint x="580" y="970" as="targetPoint" />
          </mxGeometry>
        </mxCell>
        <mxCell id="Nf-f_ZbDkElZ-WXoTZhc-42" value="" style="endArrow=block;dashed=1;endFill=0;endSize=12;html=1;rounded=0;exitX=-0.023;exitY=0.408;exitDx=0;exitDy=0;entryX=1;entryY=0.5;entryDx=0;entryDy=0;exitPerimeter=0;" edge="1" parent="1" source="Nf-f_ZbDkElZ-WXoTZhc-35" target="Nf-f_ZbDkElZ-WXoTZhc-31">
          <mxGeometry width="160" relative="1" as="geometry">
            <mxPoint x="668" y="858" as="sourcePoint" />
            <mxPoint x="590" y="980" as="targetPoint" />
          </mxGeometry>
        </mxCell>
        <mxCell id="Nf-f_ZbDkElZ-WXoTZhc-43" value="" style="endArrow=block;dashed=1;endFill=0;endSize=12;html=1;rounded=0;exitX=0;exitY=0.5;exitDx=0;exitDy=0;entryX=1;entryY=1;entryDx=0;entryDy=0;" edge="1" parent="1" source="Nf-f_ZbDkElZ-WXoTZhc-36" target="Nf-f_ZbDkElZ-WXoTZhc-31">
          <mxGeometry width="160" relative="1" as="geometry">
            <mxPoint x="678" y="868" as="sourcePoint" />
            <mxPoint x="600" y="990" as="targetPoint" />
          </mxGeometry>
        </mxCell>
        <mxCell id="Nf-f_ZbDkElZ-WXoTZhc-44" value="" style="endArrow=block;dashed=1;endFill=0;endSize=12;html=1;rounded=0;exitX=0;exitY=0;exitDx=0;exitDy=0;entryX=0.5;entryY=1;entryDx=0;entryDy=0;" edge="1" parent="1" source="Nf-f_ZbDkElZ-WXoTZhc-40" target="Nf-f_ZbDkElZ-WXoTZhc-31">
          <mxGeometry width="160" relative="1" as="geometry">
            <mxPoint x="688" y="878" as="sourcePoint" />
            <mxPoint x="610" y="1000" as="targetPoint" />
          </mxGeometry>
        </mxCell>
        <mxCell id="Nf-f_ZbDkElZ-WXoTZhc-45" value="" style="endArrow=block;dashed=1;endFill=0;endSize=12;html=1;rounded=0;entryX=0.44;entryY=1.053;entryDx=0;entryDy=0;entryPerimeter=0;" edge="1" parent="1" source="Nf-f_ZbDkElZ-WXoTZhc-37" target="Nf-f_ZbDkElZ-WXoTZhc-31">
          <mxGeometry width="160" relative="1" as="geometry">
            <mxPoint x="698" y="888" as="sourcePoint" />
            <mxPoint x="620" y="1010" as="targetPoint" />
          </mxGeometry>
        </mxCell>
        <mxCell id="Nf-f_ZbDkElZ-WXoTZhc-46" value="" style="endArrow=block;dashed=1;endFill=0;endSize=12;html=1;rounded=0;exitX=1;exitY=0;exitDx=0;exitDy=0;entryX=0;entryY=1;entryDx=0;entryDy=0;" edge="1" parent="1" source="Nf-f_ZbDkElZ-WXoTZhc-39" target="Nf-f_ZbDkElZ-WXoTZhc-31">
          <mxGeometry width="160" relative="1" as="geometry">
            <mxPoint x="708" y="898" as="sourcePoint" />
            <mxPoint x="630" y="1020" as="targetPoint" />
          </mxGeometry>
        </mxCell>
        <mxCell id="Nf-f_ZbDkElZ-WXoTZhc-47" value="" style="endArrow=block;dashed=1;endFill=0;endSize=12;html=1;rounded=0;exitX=1;exitY=0;exitDx=0;exitDy=0;entryX=0.333;entryY=1;entryDx=0;entryDy=0;entryPerimeter=0;" edge="1" parent="1" source="Nf-f_ZbDkElZ-WXoTZhc-38" target="Nf-f_ZbDkElZ-WXoTZhc-31">
          <mxGeometry width="160" relative="1" as="geometry">
            <mxPoint x="718" y="908" as="sourcePoint" />
            <mxPoint x="640" y="1030" as="targetPoint" />
          </mxGeometry>
        </mxCell>
        <mxCell id="Nf-f_ZbDkElZ-WXoTZhc-75" style="edgeStyle=orthogonalEdgeStyle;rounded=0;orthogonalLoop=1;jettySize=auto;html=1;exitX=1;exitY=1;exitDx=0;exitDy=0;dashed=1;" edge="1" parent="1" target="Nf-f_ZbDkElZ-WXoTZhc-7">
          <mxGeometry relative="1" as="geometry">
            <mxPoint x="439.99640687119273" y="1409.474271247462" as="sourcePoint" />
            <mxPoint x="907.57" y="301.19" as="targetPoint" />
            <Array as="points">
              <mxPoint x="850" y="1409" />
            </Array>
          </mxGeometry>
        </mxCell>
        <mxCell id="Nf-f_ZbDkElZ-WXoTZhc-48" value="Quản lý tin nhắn" style="ellipse;whiteSpace=wrap;html=1;strokeColor=#006600;" vertex="1" parent="1">
          <mxGeometry x="330" y="1350" width="120" height="80" as="geometry" />
        </mxCell>
        <mxCell id="Nf-f_ZbDkElZ-WXoTZhc-49" value="Bày tỏ cảm xúc" style="ellipse;whiteSpace=wrap;html=1;" vertex="1" parent="1">
          <mxGeometry x="470" y="1290" width="120" height="80" as="geometry" />
        </mxCell>
        <mxCell id="Nf-f_ZbDkElZ-WXoTZhc-50" value="Nhắn tin" style="ellipse;whiteSpace=wrap;html=1;" vertex="1" parent="1">
          <mxGeometry x="580" y="1430" width="120" height="80" as="geometry" />
        </mxCell>
        <mxCell id="Nf-f_ZbDkElZ-WXoTZhc-51" value="Xóa tin nhắn" style="ellipse;whiteSpace=wrap;html=1;" vertex="1" parent="1">
          <mxGeometry x="530" y="1540" width="120" height="80" as="geometry" />
        </mxCell>
        <mxCell id="Nf-f_ZbDkElZ-WXoTZhc-52" value="Xen tin nhắn&amp;nbsp;&lt;div&gt;theo loại&lt;/div&gt;" style="ellipse;whiteSpace=wrap;html=1;" vertex="1" parent="1">
          <mxGeometry x="400" y="1590" width="120" height="80" as="geometry" />
        </mxCell>
        <mxCell id="Nf-f_ZbDkElZ-WXoTZhc-53" value="Xóa toàn bộ tin nhắn" style="ellipse;whiteSpace=wrap;html=1;" vertex="1" parent="1">
          <mxGeometry x="290" y="1510" width="120" height="80" as="geometry" />
        </mxCell>
        <mxCell id="Nf-f_ZbDkElZ-WXoTZhc-54" value="" style="endArrow=block;dashed=1;endFill=0;endSize=12;html=1;rounded=0;exitX=0.5;exitY=0;exitDx=0;exitDy=0;entryX=0.56;entryY=0.998;entryDx=0;entryDy=0;entryPerimeter=0;" edge="1" parent="1" source="Nf-f_ZbDkElZ-WXoTZhc-52" target="Nf-f_ZbDkElZ-WXoTZhc-48">
          <mxGeometry width="160" relative="1" as="geometry">
            <mxPoint x="490" y="1622" as="sourcePoint" />
            <mxPoint x="448" y="1400" as="targetPoint" />
          </mxGeometry>
        </mxCell>
        <mxCell id="Nf-f_ZbDkElZ-WXoTZhc-55" value="" style="endArrow=block;dashed=1;endFill=0;endSize=12;html=1;rounded=0;entryX=0.333;entryY=1;entryDx=0;entryDy=0;entryPerimeter=0;" edge="1" parent="1" source="Nf-f_ZbDkElZ-WXoTZhc-53">
          <mxGeometry width="160" relative="1" as="geometry">
            <mxPoint x="452" y="1660" as="sourcePoint" />
            <mxPoint x="370" y="1430" as="targetPoint" />
          </mxGeometry>
        </mxCell>
        <mxCell id="Nf-f_ZbDkElZ-WXoTZhc-56" value="" style="endArrow=block;dashed=1;endFill=0;endSize=12;html=1;rounded=0;exitX=0;exitY=0;exitDx=0;exitDy=0;entryX=0.654;entryY=0.937;entryDx=0;entryDy=0;entryPerimeter=0;" edge="1" parent="1" source="Nf-f_ZbDkElZ-WXoTZhc-51" target="Nf-f_ZbDkElZ-WXoTZhc-48">
          <mxGeometry width="160" relative="1" as="geometry">
            <mxPoint x="550" y="1650" as="sourcePoint" />
            <mxPoint x="468" y="1420" as="targetPoint" />
          </mxGeometry>
        </mxCell>
        <mxCell id="Nf-f_ZbDkElZ-WXoTZhc-57" value="" style="endArrow=block;dashed=1;endFill=0;endSize=12;html=1;rounded=0;exitX=0;exitY=0.5;exitDx=0;exitDy=0;entryX=1;entryY=1;entryDx=0;entryDy=0;" edge="1" parent="1" source="Nf-f_ZbDkElZ-WXoTZhc-50" target="Nf-f_ZbDkElZ-WXoTZhc-48">
          <mxGeometry width="160" relative="1" as="geometry">
            <mxPoint x="560" y="1660" as="sourcePoint" />
            <mxPoint x="450" y="1400" as="targetPoint" />
          </mxGeometry>
        </mxCell>
        <mxCell id="Nf-f_ZbDkElZ-WXoTZhc-58" value="" style="endArrow=block;dashed=1;endFill=0;endSize=12;html=1;rounded=0;exitX=0.097;exitY=0.783;exitDx=0;exitDy=0;entryX=1;entryY=0;entryDx=0;entryDy=0;exitPerimeter=0;" edge="1" parent="1" source="Nf-f_ZbDkElZ-WXoTZhc-49" target="Nf-f_ZbDkElZ-WXoTZhc-48">
          <mxGeometry width="160" relative="1" as="geometry">
            <mxPoint x="570" y="1670" as="sourcePoint" />
            <mxPoint x="488" y="1440" as="targetPoint" />
          </mxGeometry>
        </mxCell>
        <mxCell id="Nf-f_ZbDkElZ-WXoTZhc-76" style="edgeStyle=orthogonalEdgeStyle;rounded=0;orthogonalLoop=1;jettySize=auto;html=1;exitX=1;exitY=0.5;exitDx=0;exitDy=0;dashed=1;" edge="1" parent="1" source="Nf-f_ZbDkElZ-WXoTZhc-59" target="Nf-f_ZbDkElZ-WXoTZhc-7">
          <mxGeometry relative="1" as="geometry">
            <Array as="points">
              <mxPoint x="860" y="1840" />
            </Array>
          </mxGeometry>
        </mxCell>
        <mxCell id="Nf-f_ZbDkElZ-WXoTZhc-59" value="Xem trang cá nhân" style="ellipse;whiteSpace=wrap;html=1;strokeColor=#006600;" vertex="1" parent="1">
          <mxGeometry x="455" y="1800" width="120" height="80" as="geometry" />
        </mxCell>
        <mxCell id="Nf-f_ZbDkElZ-WXoTZhc-81" style="edgeStyle=orthogonalEdgeStyle;rounded=0;orthogonalLoop=1;jettySize=auto;html=1;entryX=0.5;entryY=1;entryDx=0;entryDy=0;" edge="1" parent="1" target="Nf-f_ZbDkElZ-WXoTZhc-80">
          <mxGeometry relative="1" as="geometry">
            <mxPoint x="1680" y="160" as="sourcePoint" />
            <Array as="points">
              <mxPoint x="1680" y="170" />
            </Array>
          </mxGeometry>
        </mxCell>
        <mxCell id="Nf-f_ZbDkElZ-WXoTZhc-77" value="firebase" style="shape=umlActor;verticalLabelPosition=bottom;verticalAlign=top;html=1;outlineConnect=0;" vertex="1" parent="1">
          <mxGeometry x="1665" y="180" width="30" height="60" as="geometry" />
        </mxCell>
        <mxCell id="Nf-f_ZbDkElZ-WXoTZhc-80" value="xác thực otp" style="ellipse;whiteSpace=wrap;html=1;" vertex="1" parent="1">
          <mxGeometry x="1620" y="20" width="120" height="80" as="geometry" />
        </mxCell>
        <mxCell id="Nf-f_ZbDkElZ-WXoTZhc-96" style="edgeStyle=orthogonalEdgeStyle;rounded=0;orthogonalLoop=1;jettySize=auto;html=1;" edge="1" parent="1" target="Nf-f_ZbDkElZ-WXoTZhc-85">
          <mxGeometry relative="1" as="geometry">
            <mxPoint x="1600" y="340" as="sourcePoint" />
          </mxGeometry>
        </mxCell>
        <mxCell id="Nf-f_ZbDkElZ-WXoTZhc-125" style="edgeStyle=orthogonalEdgeStyle;rounded=0;orthogonalLoop=1;jettySize=auto;html=1;entryX=1;entryY=0.5;entryDx=0;entryDy=0;" edge="1" parent="1" target="Nf-f_ZbDkElZ-WXoTZhc-98">
          <mxGeometry relative="1" as="geometry">
            <mxPoint x="1600" y="380" as="sourcePoint" />
          </mxGeometry>
        </mxCell>
        <mxCell id="Nf-f_ZbDkElZ-WXoTZhc-126" style="edgeStyle=orthogonalEdgeStyle;rounded=0;orthogonalLoop=1;jettySize=auto;html=1;entryX=1;entryY=0.5;entryDx=0;entryDy=0;" edge="1" parent="1" target="Nf-f_ZbDkElZ-WXoTZhc-99">
          <mxGeometry relative="1" as="geometry">
            <mxPoint x="1625" y="410" as="sourcePoint" />
            <Array as="points">
              <mxPoint x="1625" y="650" />
            </Array>
          </mxGeometry>
        </mxCell>
        <mxCell id="Nf-f_ZbDkElZ-WXoTZhc-127" style="edgeStyle=orthogonalEdgeStyle;rounded=0;orthogonalLoop=1;jettySize=auto;html=1;entryX=1;entryY=0.5;entryDx=0;entryDy=0;" edge="1" parent="1" target="Nf-f_ZbDkElZ-WXoTZhc-100">
          <mxGeometry relative="1" as="geometry">
            <mxPoint x="1640" y="360" as="sourcePoint" />
            <Array as="points">
              <mxPoint x="1640" y="360" />
              <mxPoint x="1660" y="360" />
              <mxPoint x="1660" y="770" />
            </Array>
          </mxGeometry>
        </mxCell>
        <mxCell id="Nf-f_ZbDkElZ-WXoTZhc-128" style="edgeStyle=orthogonalEdgeStyle;rounded=0;orthogonalLoop=1;jettySize=auto;html=1;entryX=1;entryY=0.5;entryDx=0;entryDy=0;" edge="1" parent="1" target="Nf-f_ZbDkElZ-WXoTZhc-109">
          <mxGeometry relative="1" as="geometry">
            <mxPoint x="1650" y="340" as="sourcePoint" />
            <Array as="points">
              <mxPoint x="1650" y="340" />
              <mxPoint x="1670" y="340" />
              <mxPoint x="1670" y="1330" />
            </Array>
          </mxGeometry>
        </mxCell>
        <mxCell id="Nf-f_ZbDkElZ-WXoTZhc-83" value="Admin" style="shape=umlActor;verticalLabelPosition=bottom;verticalAlign=top;html=1;outlineConnect=0;" vertex="1" parent="1">
          <mxGeometry x="1610" y="320" width="30" height="60" as="geometry" />
        </mxCell>
        <mxCell id="Nf-f_ZbDkElZ-WXoTZhc-97" style="edgeStyle=orthogonalEdgeStyle;rounded=0;orthogonalLoop=1;jettySize=auto;html=1;exitX=0;exitY=0;exitDx=0;exitDy=0;entryX=0.5;entryY=0;entryDx=0;entryDy=0;dashed=1;" edge="1" parent="1" source="Nf-f_ZbDkElZ-WXoTZhc-85" target="Nf-f_ZbDkElZ-WXoTZhc-7">
          <mxGeometry relative="1" as="geometry">
            <Array as="points">
              <mxPoint x="1373" y="250" />
              <mxPoint x="880" y="250" />
            </Array>
          </mxGeometry>
        </mxCell>
        <mxCell id="Nf-f_ZbDkElZ-WXoTZhc-85" value="Quản lý người dùng" style="ellipse;whiteSpace=wrap;html=1;strokeColor=#4D9900;" vertex="1" parent="1">
          <mxGeometry x="1355" y="300" width="120" height="80" as="geometry" />
        </mxCell>
        <mxCell id="Nf-f_ZbDkElZ-WXoTZhc-91" style="edgeStyle=orthogonalEdgeStyle;rounded=0;orthogonalLoop=1;jettySize=auto;html=1;exitX=0.5;exitY=1;exitDx=0;exitDy=0;entryX=1;entryY=0;entryDx=0;entryDy=0;dashed=1;" edge="1" parent="1" source="Nf-f_ZbDkElZ-WXoTZhc-86" target="Nf-f_ZbDkElZ-WXoTZhc-85">
          <mxGeometry relative="1" as="geometry" />
        </mxCell>
        <mxCell id="Nf-f_ZbDkElZ-WXoTZhc-86" value="Khóa tài khoản" style="ellipse;whiteSpace=wrap;html=1;" vertex="1" parent="1">
          <mxGeometry x="1460" y="180" width="120" height="80" as="geometry" />
        </mxCell>
        <mxCell id="Nf-f_ZbDkElZ-WXoTZhc-92" style="edgeStyle=orthogonalEdgeStyle;rounded=0;orthogonalLoop=1;jettySize=auto;html=1;exitX=0.5;exitY=1;exitDx=0;exitDy=0;dashed=1;entryX=0.294;entryY=0.013;entryDx=0;entryDy=0;entryPerimeter=0;" edge="1" parent="1" source="Nf-f_ZbDkElZ-WXoTZhc-87" target="Nf-f_ZbDkElZ-WXoTZhc-85">
          <mxGeometry relative="1" as="geometry">
            <mxPoint x="1400" y="290" as="targetPoint" />
            <Array as="points">
              <mxPoint x="1390" y="290" />
              <mxPoint x="1390" y="290" />
            </Array>
          </mxGeometry>
        </mxCell>
        <mxCell id="Nf-f_ZbDkElZ-WXoTZhc-87" value="xem danh sách&amp;nbsp;&lt;div&gt;tài khoản&lt;/div&gt;" style="ellipse;whiteSpace=wrap;html=1;" vertex="1" parent="1">
          <mxGeometry x="1330" y="150" width="120" height="80" as="geometry" />
        </mxCell>
        <mxCell id="Nf-f_ZbDkElZ-WXoTZhc-93" style="edgeStyle=orthogonalEdgeStyle;rounded=0;orthogonalLoop=1;jettySize=auto;html=1;exitX=1;exitY=0.5;exitDx=0;exitDy=0;dashed=1;" edge="1" parent="1" source="Nf-f_ZbDkElZ-WXoTZhc-88" target="Nf-f_ZbDkElZ-WXoTZhc-85">
          <mxGeometry relative="1" as="geometry" />
        </mxCell>
        <mxCell id="Nf-f_ZbDkElZ-WXoTZhc-88" value="mở khóa tài khoản" style="ellipse;whiteSpace=wrap;html=1;" vertex="1" parent="1">
          <mxGeometry x="1150" y="260" width="120" height="80" as="geometry" />
        </mxCell>
        <mxCell id="Nf-f_ZbDkElZ-WXoTZhc-95" style="edgeStyle=orthogonalEdgeStyle;rounded=0;orthogonalLoop=1;jettySize=auto;html=1;exitX=0.5;exitY=0;exitDx=0;exitDy=0;entryX=0.5;entryY=1;entryDx=0;entryDy=0;dashed=1;" edge="1" parent="1" source="Nf-f_ZbDkElZ-WXoTZhc-89" target="Nf-f_ZbDkElZ-WXoTZhc-85">
          <mxGeometry relative="1" as="geometry" />
        </mxCell>
        <mxCell id="Nf-f_ZbDkElZ-WXoTZhc-89" value="Cập nhật mật khẩu người dùng" style="ellipse;whiteSpace=wrap;html=1;" vertex="1" parent="1">
          <mxGeometry x="1355" y="400" width="120" height="80" as="geometry" />
        </mxCell>
        <mxCell id="Nf-f_ZbDkElZ-WXoTZhc-94" style="edgeStyle=orthogonalEdgeStyle;rounded=0;orthogonalLoop=1;jettySize=auto;html=1;exitX=1;exitY=0;exitDx=0;exitDy=0;entryX=0;entryY=1;entryDx=0;entryDy=0;dashed=1;" edge="1" parent="1" source="Nf-f_ZbDkElZ-WXoTZhc-90" target="Nf-f_ZbDkElZ-WXoTZhc-85">
          <mxGeometry relative="1" as="geometry" />
        </mxCell>
        <mxCell id="Nf-f_ZbDkElZ-WXoTZhc-90" value="tìm kiếm thông tin&lt;div&gt;tài khoản&lt;/div&gt;" style="ellipse;whiteSpace=wrap;html=1;" vertex="1" parent="1">
          <mxGeometry x="1210" y="380" width="120" height="80" as="geometry" />
        </mxCell>
        <mxCell id="Nf-f_ZbDkElZ-WXoTZhc-98" value="Xem admin log" style="ellipse;whiteSpace=wrap;html=1;strokeColor=#4D9900;" vertex="1" parent="1">
          <mxGeometry x="1330" y="500" width="120" height="80" as="geometry" />
        </mxCell>
        <mxCell id="Nf-f_ZbDkElZ-WXoTZhc-106" style="edgeStyle=orthogonalEdgeStyle;rounded=0;orthogonalLoop=1;jettySize=auto;html=1;exitX=0;exitY=0.5;exitDx=0;exitDy=0;dashed=1;dashPattern=8 8;entryX=0.622;entryY=0.995;entryDx=0;entryDy=0;entryPerimeter=0;" edge="1" parent="1" source="Nf-f_ZbDkElZ-WXoTZhc-99" target="Nf-f_ZbDkElZ-WXoTZhc-7">
          <mxGeometry relative="1" as="geometry">
            <mxPoint x="880" y="340" as="targetPoint" />
            <Array as="points">
              <mxPoint x="907" y="650" />
            </Array>
          </mxGeometry>
        </mxCell>
        <mxCell id="Nf-f_ZbDkElZ-WXoTZhc-99" value="Cập nhật tài khoản&lt;div&gt;admin&lt;/div&gt;" style="ellipse;whiteSpace=wrap;html=1;strokeColor=#4D9900;" vertex="1" parent="1">
          <mxGeometry x="1330" y="610" width="120" height="80" as="geometry" />
        </mxCell>
        <mxCell id="Nf-f_ZbDkElZ-WXoTZhc-105" style="edgeStyle=orthogonalEdgeStyle;rounded=0;orthogonalLoop=1;jettySize=auto;html=1;exitX=0;exitY=0.5;exitDx=0;exitDy=0;entryX=1;entryY=0.5;entryDx=0;entryDy=0;dashed=1;" edge="1" parent="1" source="Nf-f_ZbDkElZ-WXoTZhc-100" target="Nf-f_ZbDkElZ-WXoTZhc-7">
          <mxGeometry relative="1" as="geometry" />
        </mxCell>
        <mxCell id="Nf-f_ZbDkElZ-WXoTZhc-100" value="Thống kê" style="ellipse;whiteSpace=wrap;html=1;strokeColor=#4D9900;" vertex="1" parent="1">
          <mxGeometry x="1330" y="730" width="120" height="80" as="geometry" />
        </mxCell>
        <mxCell id="Nf-f_ZbDkElZ-WXoTZhc-104" style="edgeStyle=orthogonalEdgeStyle;rounded=0;orthogonalLoop=1;jettySize=auto;html=1;exitX=1;exitY=0;exitDx=0;exitDy=0;entryX=0.046;entryY=0.731;entryDx=0;entryDy=0;dashed=1;entryPerimeter=0;" edge="1" parent="1" source="Nf-f_ZbDkElZ-WXoTZhc-101" target="Nf-f_ZbDkElZ-WXoTZhc-100">
          <mxGeometry relative="1" as="geometry">
            <Array as="points">
              <mxPoint x="1252" y="788" />
              <mxPoint x="1300" y="788" />
            </Array>
          </mxGeometry>
        </mxCell>
        <mxCell id="Nf-f_ZbDkElZ-WXoTZhc-101" value="Số lượng tin nhắn" style="ellipse;whiteSpace=wrap;html=1;" vertex="1" parent="1">
          <mxGeometry x="1150" y="790" width="120" height="80" as="geometry" />
        </mxCell>
        <mxCell id="Nf-f_ZbDkElZ-WXoTZhc-103" style="edgeStyle=orthogonalEdgeStyle;rounded=0;orthogonalLoop=1;jettySize=auto;html=1;exitX=0.5;exitY=0;exitDx=0;exitDy=0;entryX=0.5;entryY=1;entryDx=0;entryDy=0;dashed=1;" edge="1" parent="1" source="Nf-f_ZbDkElZ-WXoTZhc-102" target="Nf-f_ZbDkElZ-WXoTZhc-100">
          <mxGeometry relative="1" as="geometry" />
        </mxCell>
        <mxCell id="Nf-f_ZbDkElZ-WXoTZhc-102" value="Số lượng đăng ký" style="ellipse;whiteSpace=wrap;html=1;" vertex="1" parent="1">
          <mxGeometry x="1320" y="840" width="120" height="80" as="geometry" />
        </mxCell>
        <mxCell id="Nf-f_ZbDkElZ-WXoTZhc-108" style="edgeStyle=orthogonalEdgeStyle;rounded=0;orthogonalLoop=1;jettySize=auto;html=1;exitX=0;exitY=0.5;exitDx=0;exitDy=0;dashed=1;entryX=0.94;entryY=0.744;entryDx=0;entryDy=0;entryPerimeter=0;" edge="1" parent="1" target="Nf-f_ZbDkElZ-WXoTZhc-7">
          <mxGeometry relative="1" as="geometry">
            <mxPoint x="1519.9999999999923" y="521.84" as="sourcePoint" />
            <mxPoint x="900" y="330" as="targetPoint" />
            <Array as="points">
              <mxPoint x="977" y="522" />
            </Array>
          </mxGeometry>
        </mxCell>
        <mxCell id="Nf-f_ZbDkElZ-WXoTZhc-109" value="Quản lý bạn bè" style="ellipse;whiteSpace=wrap;html=1;strokeColor=#4D9900;" vertex="1" parent="1">
          <mxGeometry x="1180" y="1290" width="120" height="80" as="geometry" />
        </mxCell>
        <mxCell id="Nf-f_ZbDkElZ-WXoTZhc-119" style="edgeStyle=orthogonalEdgeStyle;rounded=0;orthogonalLoop=1;jettySize=auto;html=1;exitX=0.5;exitY=1;exitDx=0;exitDy=0;entryX=0.5;entryY=0;entryDx=0;entryDy=0;dashed=1;" edge="1" parent="1" source="Nf-f_ZbDkElZ-WXoTZhc-110" target="Nf-f_ZbDkElZ-WXoTZhc-109">
          <mxGeometry relative="1" as="geometry" />
        </mxCell>
        <mxCell id="Nf-f_ZbDkElZ-WXoTZhc-110" value="Gửi lời mời kết bạn" style="ellipse;whiteSpace=wrap;html=1;" vertex="1" parent="1">
          <mxGeometry x="1180" y="1120" width="120" height="80" as="geometry" />
        </mxCell>
        <mxCell id="Nf-f_ZbDkElZ-WXoTZhc-118" style="edgeStyle=orthogonalEdgeStyle;rounded=0;orthogonalLoop=1;jettySize=auto;html=1;exitX=0.5;exitY=1;exitDx=0;exitDy=0;entryX=1;entryY=0;entryDx=0;entryDy=0;dashed=1;" edge="1" parent="1" source="Nf-f_ZbDkElZ-WXoTZhc-111" target="Nf-f_ZbDkElZ-WXoTZhc-109">
          <mxGeometry relative="1" as="geometry" />
        </mxCell>
        <mxCell id="Nf-f_ZbDkElZ-WXoTZhc-111" value="Chấp nhận lời mời&lt;div&gt;kết bạn&lt;/div&gt;" style="ellipse;whiteSpace=wrap;html=1;" vertex="1" parent="1">
          <mxGeometry x="1295" y="1180" width="120" height="80" as="geometry" />
        </mxCell>
        <mxCell id="Nf-f_ZbDkElZ-WXoTZhc-120" style="edgeStyle=orthogonalEdgeStyle;rounded=0;orthogonalLoop=1;jettySize=auto;html=1;exitX=1;exitY=0.5;exitDx=0;exitDy=0;dashed=1;" edge="1" parent="1" source="Nf-f_ZbDkElZ-WXoTZhc-112">
          <mxGeometry relative="1" as="geometry">
            <mxPoint x="1210" y="1294" as="targetPoint" />
            <Array as="points">
              <mxPoint x="1210" y="1260" />
              <mxPoint x="1210" y="1294" />
            </Array>
          </mxGeometry>
        </mxCell>
        <mxCell id="Nf-f_ZbDkElZ-WXoTZhc-112" value="Xem danh sách bạn&lt;div&gt;bè&lt;/div&gt;" style="ellipse;whiteSpace=wrap;html=1;" vertex="1" parent="1">
          <mxGeometry x="1030" y="1220" width="120" height="80" as="geometry" />
        </mxCell>
        <mxCell id="Nf-f_ZbDkElZ-WXoTZhc-121" style="edgeStyle=orthogonalEdgeStyle;rounded=0;orthogonalLoop=1;jettySize=auto;html=1;exitX=1;exitY=0;exitDx=0;exitDy=0;entryX=0.5;entryY=1;entryDx=0;entryDy=0;dashed=1;" edge="1" parent="1" source="Nf-f_ZbDkElZ-WXoTZhc-113" target="Nf-f_ZbDkElZ-WXoTZhc-109">
          <mxGeometry relative="1" as="geometry" />
        </mxCell>
        <mxCell id="Nf-f_ZbDkElZ-WXoTZhc-113" value="Hủy kết bạn" style="ellipse;whiteSpace=wrap;html=1;" vertex="1" parent="1">
          <mxGeometry x="1000" y="1410" width="120" height="80" as="geometry" />
        </mxCell>
        <mxCell id="Nf-f_ZbDkElZ-WXoTZhc-114" value="Đồng bộ danh bạ" style="ellipse;whiteSpace=wrap;html=1;" vertex="1" parent="1">
          <mxGeometry x="1120" y="1530" width="120" height="80" as="geometry" />
        </mxCell>
        <mxCell id="Nf-f_ZbDkElZ-WXoTZhc-123" style="edgeStyle=orthogonalEdgeStyle;rounded=0;orthogonalLoop=1;jettySize=auto;html=1;exitX=0.5;exitY=0;exitDx=0;exitDy=0;entryX=1;entryY=1;entryDx=0;entryDy=0;dashed=1;" edge="1" parent="1" source="Nf-f_ZbDkElZ-WXoTZhc-115" target="Nf-f_ZbDkElZ-WXoTZhc-109">
          <mxGeometry relative="1" as="geometry" />
        </mxCell>
        <mxCell id="Nf-f_ZbDkElZ-WXoTZhc-115" value="Từ chối lời mời&lt;div&gt;kết bạn&lt;/div&gt;" style="ellipse;whiteSpace=wrap;html=1;" vertex="1" parent="1">
          <mxGeometry x="1280" y="1580" width="120" height="80" as="geometry" />
        </mxCell>
        <mxCell id="Nf-f_ZbDkElZ-WXoTZhc-124" style="edgeStyle=orthogonalEdgeStyle;rounded=0;orthogonalLoop=1;jettySize=auto;html=1;exitX=0.5;exitY=0;exitDx=0;exitDy=0;dashed=1;" edge="1" parent="1" source="Nf-f_ZbDkElZ-WXoTZhc-116">
          <mxGeometry relative="1" as="geometry">
            <mxPoint x="1300" y="1350" as="targetPoint" />
            <Array as="points">
              <mxPoint x="1470" y="1350" />
              <mxPoint x="1300" y="1350" />
            </Array>
          </mxGeometry>
        </mxCell>
        <mxCell id="Nf-f_ZbDkElZ-WXoTZhc-116" value="Thu hồi lời mời kết bạn" style="ellipse;whiteSpace=wrap;html=1;" vertex="1" parent="1">
          <mxGeometry x="1410" y="1450" width="120" height="80" as="geometry" />
        </mxCell>
        <mxCell id="Nf-f_ZbDkElZ-WXoTZhc-117" style="edgeStyle=orthogonalEdgeStyle;rounded=0;orthogonalLoop=1;jettySize=auto;html=1;exitX=0;exitY=0.5;exitDx=0;exitDy=0;entryX=0.5;entryY=1;entryDx=0;entryDy=0;dashed=1;" edge="1" parent="1" source="Nf-f_ZbDkElZ-WXoTZhc-109" target="Nf-f_ZbDkElZ-WXoTZhc-7">
          <mxGeometry relative="1" as="geometry">
            <Array as="points">
              <mxPoint x="880" y="1330" />
            </Array>
          </mxGeometry>
        </mxCell>
        <mxCell id="Nf-f_ZbDkElZ-WXoTZhc-129" style="edgeStyle=orthogonalEdgeStyle;rounded=0;orthogonalLoop=1;jettySize=auto;html=1;exitX=0.5;exitY=1;exitDx=0;exitDy=0;" edge="1" parent="1" source="Nf-f_ZbDkElZ-WXoTZhc-80" target="Nf-f_ZbDkElZ-WXoTZhc-80">
          <mxGeometry relative="1" as="geometry" />
        </mxCell>
        <mxCell id="Nf-f_ZbDkElZ-WXoTZhc-131" style="edgeStyle=orthogonalEdgeStyle;rounded=0;orthogonalLoop=1;jettySize=auto;html=1;exitX=0.5;exitY=0;exitDx=0;exitDy=0;entryX=0.702;entryY=1.04;entryDx=0;entryDy=0;dashed=1;entryPerimeter=0;" edge="1" parent="1" source="Nf-f_ZbDkElZ-WXoTZhc-114" target="Nf-f_ZbDkElZ-WXoTZhc-109">
          <mxGeometry relative="1" as="geometry">
            <mxPoint x="1112" y="1432" as="sourcePoint" />
            <mxPoint x="1250" y="1380" as="targetPoint" />
          </mxGeometry>
        </mxCell>
        <mxCell id="Nf-f_ZbDkElZ-WXoTZhc-134" value="Chat 3TL" style="swimlane;whiteSpace=wrap;html=1;" vertex="1" parent="1">
          <mxGeometry x="270" y="10" width="1320" height="1900" as="geometry" />
        </mxCell>
        <mxCell id="Nf-f_ZbDkElZ-WXoTZhc-7" value="Đăng nhập" style="ellipse;whiteSpace=wrap;html=1;" vertex="1" parent="Nf-f_ZbDkElZ-WXoTZhc-134">
          <mxGeometry x="500" y="310" width="220" height="190" as="geometry" />
        </mxCell>
        <mxCell id="Nf-f_ZbDkElZ-WXoTZhc-2" value="Bằng SDT" style="ellipse;whiteSpace=wrap;html=1;" vertex="1" parent="Nf-f_ZbDkElZ-WXoTZhc-134">
          <mxGeometry x="350" y="30" width="120" height="70" as="geometry" />
        </mxCell>
      </root>
    </mxGraphModel>
  </diagram>
</mxfile>
